<?xml version="1.0" standalone="no"?>
<!DOCTYPE svg PUBLIC "-//W3C//DTD SVG 1.1//EN" "http://www.w3.org/Graphics/SVG/1.1/DTD/svg11.dtd" >
<!--
2013-9-30: Created.
-->
<svg>
<metadata>
Created by iconfont
</metadata>
<defs>

<font id="iconfont" horiz-adv-x="1024" >
  <font-face
    font-family="iconfont"
    font-weight="500"
    font-stretch="normal"
    units-per-em="1024"
    ascent="896"
    descent="-128"
  />
    <missing-glyph />
    
    <glyph glyph-name="x" unicode="x" horiz-adv-x="1001"
d="M281 543q-27 -1 -53 -1h-83q-18 0 -36.5 -6t-32.5 -18.5t-23 -32t-9 -45.5v-76h912v41q0 16 -0.5 30t-0.5 18q0 13 -5 29t-17 29.5t-31.5 22.5t-49.5 9h-133v-97h-438v97zM955 310v-52q0 -23 0.5 -52t0.5 -58t-10.5 -47.5t-26 -30t-33 -16t-31.5 -4.5q-14 -1 -29.5 -0.5
t-29.5 0.5h-32l-45 128h-439l-44 -128h-29h-34q-20 0 -45 1q-25 0 -41 9.5t-25.5 23t-13.5 29.5t-4 30v167h911zM163 247q-12 0 -21 -8.5t-9 -21.5t9 -21.5t21 -8.5q13 0 22 8.5t9 21.5t-9 21.5t-22 8.5zM316 123q-8 -26 -14 -48q-5 -19 -10.5 -37t-7.5 -25t-3 -15t1 -14.5
t9.5 -10.5t21.5 -4h37h67h81h80h64h36q23 0 34 12t2 38q-5 13 -9.5 30.5t-9.5 34.5q-5 19 -11 39h-368zM336 498v228q0 11 2.5 23t10 21.5t20.5 15.5t34 6h188q31 0 51.5 -14.5t20.5 -52.5v-227h-327z" />
    

    
    <glyph glyph-name="jiantou1" unicode="&#58880;" d="M512.003 52.865l416.859 448.939h-833.724l416.865-448.939z"  horiz-adv-x="1024" />

    
    <glyph glyph-name="kuliancopy" unicode="&#58910;" d="M512-53.794133C270.199467-53.794133 74.205867 142.199467 74.205867 384 74.205867 625.800533 270.199467 821.794133 512 821.794133c241.800533 0 437.794133-195.9936 437.794133-437.794133 0-241.800533-195.9936-437.794133-437.794133-437.794133M512 896C229.239467 896 0 666.760533 0 384c0-282.760533 229.239467-512 512-512 282.760533 0 512 229.239467 512 512 0 282.760533-229.239467 512-512 512M307.131733 580.608a77.9264 77.9264 0 1 0 0-155.784533 77.9264 77.9264 0 0 0 0 155.818666M716.868267 424.823467a77.9264 77.9264 0 1 0 0 155.818666 77.9264 77.9264 0 0 0 0-155.818666M647.202133 183.227733H376.832a35.566933 35.566933 0 0 0-35.498667 35.464534c0 19.490133 16.008533 35.464533 35.498667 35.464533h270.404267c19.524267 0 35.464533-15.9744 35.464533-35.498667 0-19.456-15.940267-35.4304-35.464533-35.4304"  horiz-adv-x="1181" />

    
    <glyph glyph-name="wrong" unicode="&#58943;" d="M823.51 657.364c5.6-17.112-3.426-35.363-20.504-41.461-18.046-6.443-36.743 2.84-42.719 21.209-5.723 17.595 2.987 35.134 20.538 41.356 18.209 6.455 36.65-2.662 42.685-21.104zM877.32 582.62l-0.039-0.021c-4.743 10.685-16.94 16.169-28.214 12.317-11.925-4.075-18.29-17.046-14.215-28.971a22.814 22.814 0 0 1 2.319-4.801l-0.1-0.054a371.16 371.16 0 0 0 25.726-58.364c65.939-192.977-37.045-402.869-230.022-468.808-192.976-65.939-402.869 37.045-468.808 230.022-65.939 192.976 37.045 402.869 230.022 468.808 97.265 33.235 198.82 23.538 284.081-18.948l0.017 0.028c5.625-3.521 12.726-4.578 19.495-2.266 11.926 4.075 18.29 17.046 14.215 28.971-1.864 5.455-5.6 9.726-10.234 12.387l0.063 0.105c-96.453 49.102-211.885 60.668-322.393 22.908-216.827-74.089-332.54-309.923-258.451-526.75s309.923-332.54 526.75-258.451 332.54 309.923 258.451 526.75a417.432 417.432 0 0 1-28.663 65.138zM712.252 217.059c9.001-9.001 9.001-23.595 0-32.597-9.001-9.001-23.595-9.001-32.597 0L314.512 549.606c-9.001 9.001-9.001 23.595 0 32.597 9.001 9.001 23.595 9.001 32.597 0l365.143-365.144zM679.656 582.203c9.001 9.001 23.595 9.001 32.597 0 9.001-9.001 9.001-23.595 0-32.597L347.109 184.463c-9.001-9.001-23.595-9.001-32.597 0-9.001 9.001-9.001 23.595 0 32.597l365.144 365.143z"  horiz-adv-x="1024" />

    
    <glyph glyph-name="right" unicode="&#58885;" d="M512 784.298c-221.08 0-400.298-179.22-400.298-400.298S290.921-16.298 512-16.298c221.078 0 400.298 179.22 400.298 400.298S733.078 784.298 512 784.298z m0-754.347c-195.535 0-354.049 158.514-354.049 354.049 0 195.535 158.514 354.049 354.049 354.049 195.535 0 354.049-158.514 354.049-354.049 0-195.535-158.514-354.049-354.049-354.049zM761.666 524.302c0 12.456-10.097 22.552-22.552 22.552-8.048 0-15.061-4.247-19.052-10.59L452.91 269.112 312.108 409.914c-8.808 8.807-23.086 8.807-31.894 0-8.807-8.807-8.807-23.087 0-31.894l0.005-0.004 172.69-172.69 302.59 302.59-0.438 0.44a22.478 22.478 0 0 1 6.605 15.946z"  horiz-adv-x="1024" />

    
    <glyph glyph-name="guanzhu" unicode="&#58920;" d="M594.431602 102.623783c-43.48637-38.535645-85.47252-75.731093-122.157894-112.196435-38.415627 38.235601-82.302056 76.811252-127.778718 116.707096-124.828285 109.646061-266.349016 233.864257-265.638912 335.949211 1.000147 137.020071 61.008937 218.86206 160.673536 218.86206 64.909508 0 128.808868-35.325175 166.734424-92.183504l67.209846-100.69475 64.949514 102.184969c25.303707 39.705816 65.679621 69.270147 110.376168 82.862138v81.451931c-69.720213-14.712155-135.749885-57.218382-176.925917-122.017874-54.327958 81.391923-144.981237 127.308649-232.344035 127.308649C117.361719 740.857274 1.434737 651.164135 0.004528 443.643737c-1.43021-205.720135 336.939356-401.578825 472.4092-570.033501 129.018899 161.613674 470.42891 366.463681 471.289037 570.153518h-79.011574c-0.630092-102.094955-150.021976-234.534356-270.26959-341.139971m349.351174 636.04317V896H865.131255v-157.343048H707.80821v-78.631519H865.131255v-157.293041h78.64152V660.025433h157.273038v78.631519H943.772775z m0 0"  horiz-adv-x="1103" />

    
    <glyph glyph-name="gengduo" unicode="&#58882;" d="M746.662 384c0-51.836 42.045-93.866 93.866-93.866 51.852 0 93.866 42.03 93.866 93.866 0 51.837-42.014 93.866-93.866 93.866-51.821-0.001-93.866-42.03-93.866-93.866zM89.604 384c0-51.836 42.044-93.866 93.865-93.866 51.822 0 93.866 42.03 93.866 93.866 0 51.837-42.044 93.866-93.866 93.866-51.82-0.001-93.865-42.03-93.865-93.866zM418.133 384c0-51.836 42.014-93.866 93.866-93.866 51.822 0 93.865 42.03 93.865 93.866 0 51.837-42.043 93.866-93.865 93.866-51.852-0.001-93.866-42.03-93.866-93.866z"  horiz-adv-x="1024" />

    
    <glyph glyph-name="shenfenzheng" unicode="&#58884;" d="M1053.926 754.789H255.3c-62.983-0.064-114.023-51.105-114.087-114.082v-513.408c0.064-62.983 51.105-114.023 114.083-114.087h798.632c62.983 0.064 114.024 51.105 114.087 114.082V640.702c-0.064 62.983-51.105 114.023-114.082 114.087z m57.039-627.491c-0.041-31.491-25.558-57.008-57.045-57.05H255.3c-31.487 0.047-56.998 25.562-57.038 57.045V640.698c0.04 31.491 25.558 57.008 57.045 57.049h798.62c31.487-0.047 56.998-25.562 57.039-57.045zM946.142 361.41c30.804 26.183 50.735 64.688 50.735 108.152 0 78.633-63.979 142.613-142.613 142.613s-142.601-63.98-142.601-142.613c0-43.464 19.961-81.969 50.766-108.152-63.939-33.32-107.813-100.123-107.813-177.071 0-15.753 12.772-28.524 28.524-28.524 15.753 0 28.524 12.772 28.524 28.524 0 78.633 63.98 142.612 142.612 142.612s142.613-63.979 142.613-142.612c0-15.753 12.772-28.524 28.524-28.524 15.753 0 28.524 12.772 28.524 28.524-0.009 76.948-43.854 143.752-107.795 177.071z m-177.44 108.153c0 47.257 38.308 85.563 85.564 85.563s85.563-38.308 85.563-85.563c0-47.257-38.308-85.563-85.563-85.563-47.234 0.052-85.51 38.33-85.563 85.559z m-142.615 85.574H283.823c-15.753 0-28.524-12.772-28.524-28.524s12.772-28.524 28.524-28.524h342.264c15.753 0 28.524 12.772 28.524 28.524s-12.772 28.524-28.524 28.524z m-28.524-142.613h-313.74c-15.753 0-28.524-12.772-28.524-28.524s12.772-28.524 28.524-28.524h313.74c15.753 0 28.524 12.772 28.524 28.524s-12.772 28.524-28.524 28.524zM512 269.913H283.824c-15.753 0-28.524-12.772-28.524-28.524s12.772-28.524 28.524-28.524H512c15.753 0 28.524 12.772 28.524 28.524S527.752 269.913 512 269.913z"  horiz-adv-x="1417" />

    
    <glyph glyph-name="sousuo" unicode="&#58886;" d="M586.154 742.73c-39.917 16.186-82.087 24.394-125.337 24.394s-85.418-8.207-125.335-24.395c-41.345-16.766-78.426-41.385-110.215-73.173-31.79-31.79-56.408-68.87-73.175-110.216-16.187-39.917-24.395-82.085-24.395-125.335s8.208-85.42 24.395-125.337c16.766-41.344 41.386-78.426 73.174-110.215 31.789-31.789 68.87-56.408 110.215-73.173 39.917-16.188 82.086-24.395 125.336-24.395s85.419 8.208 125.336 24.395c30.909 12.534 59.432 29.46 85.146 50.486l171.613-171.612 47.756 47.757-171.612 171.612c21.026 25.714 37.952 54.237 50.486 85.145 16.187 39.917 24.394 82.086 24.394 125.336s-8.208 85.42-24.394 125.336c-16.766 41.345-41.385 78.427-73.174 110.216s-68.87 56.408-110.214 73.173z m140.244-308.725c0.001-70.939-27.625-137.633-77.787-187.794-50.162-50.163-116.855-77.787-187.795-77.787-70.938 0-137.632 27.625-187.794 77.787-50.161 50.161-77.786 116.855-77.786 187.795 0 70.94 27.625 137.633 77.787 187.794 50.162 50.161 116.855 77.787 187.794 77.787 70.94 0 137.633-27.626 187.795-77.787 50.162-50.162 77.787-116.856 77.786-187.795z"  horiz-adv-x="1024" />

    
    <glyph glyph-name="renshiguanli" unicode="&#58887;" d="M860.16 446.976H602.624v-48.128H860.16v48.128z m0-173.568H602.624v-48.128H860.16v48.128z m0-169.472H602.624v-48.128H860.16v48.128zM439.296 248.32c31.744 24.064 52.224 61.952 52.224 105.472 0 72.704-58.368 131.584-130.048 131.584-71.168-0.512-129.536-58.88-129.536-131.584 0-43.008 20.48-81.408 52.224-105.472-75.264-30.72-128.512-105.472-128.512-192.512h47.104c0 91.648 68.096 160.256 159.232 160.256s159.232-68.096 159.232-160.256h46.592c0 86.528-53.248 161.28-128.512 192.512z m-77.312 22.016c-45.056 0-81.92 37.376-81.92 83.456s36.864 82.944 81.92 82.944 81.92-37.376 81.92-82.944c0-46.08-36.864-83.456-81.92-83.456zM141.824 844.8h703.488c14.336 0 25.6 11.776 25.6 25.6S859.136 896 845.312 896H141.824c-14.336 0-25.6-11.776-25.6-25.6s11.264-25.6 25.6-25.6z m-74.24-111.104H919.04c14.336 0 25.6 11.776 25.6 25.6s-11.776 25.6-25.6 25.6H67.584c-14.336 0-25.6-11.776-25.6-25.6s11.776-25.6 25.6-25.6zM919.04 673.792H104.96c-54.784 0-99.84-44.544-99.84-99.84v-592.384c0-54.784 44.544-99.84 99.84-99.84h814.08c54.784 0 99.84 44.544 99.84 99.84V573.952c0 55.296-44.544 99.84-99.84 99.84z m48.64-99.84v-592.384c0-26.624-21.504-48.128-48.128-48.128h-814.08c-26.624 0-48.128 21.504-48.128 48.128V573.952c0 26.624 21.504 48.128 48.128 48.128h814.08c26.112 0.512 48.128-21.504 48.128-48.128z"  horiz-adv-x="1024" />

    
    <glyph glyph-name="mima" unicode="&#58888;" d="M762.624 499.45h-27.852V607.364c0 129.735-92.452 231.332-223.8 231.332-131.877 0-221.746-103.762-221.746-231.332V499.45h-27.85c-61.422 0-111.381-50.71-111.381-113.081v-339.201c0-62.372 49.959-113.082 111.38-113.082h501.249c61.42 0 111.381 50.71 111.381 113.082V386.369c0 62.371-49.96 113.081-111.381 113.081zM344.906 607.364c0 96.34 64.889 174.79 166.065 174.79 100.118 0 168.1-76.771 168.1-174.79V499.45H344.906V607.364z m473.397-560.196c0-31.186-24.98-56.541-55.68-56.541H261.376c-30.7 0-55.701 25.355-55.701 56.54V386.37c0 31.186 25.001 56.54 55.701 56.54h501.249c30.699 0 55.679-25.355 55.679-56.54v-339.201zM511.987 329.87c-30.743 0-55.679-25.354-55.679-56.584 0-20.93 11.208-39.187 27.85-48.964v-92.389c0-15.593 12.457-28.226 27.83-28.226 15.394 0 27.85 12.633 27.85 28.226v92.393c16.647 9.777 27.853 28.034 27.853 48.96 0 31.23-24.937 56.584-55.704 56.584z"  horiz-adv-x="1024" />

    
    <glyph glyph-name="tixing" unicode="&#58889;" d="M821.01-4.335H203.06c-71.954 0-117.249 15.394-138.48 47.07a69.052 69.052 0 0 0-7.1 62.669l3.38 5.939 107.417 140.459V429.568c0 287.369 278.87 341.845 281.669 342.357l4.71 0.444 119.364-0.444c2.833-0.512 281.669-54.954 281.669-342.357v-177.766l110.865-146.398c1.365-3.345 12.663-33.075-7.1-62.67-21.231-31.675-66.492-47.069-138.445-47.069z m-715.811 87.928a17.135 17.135 0 0 1 2.97-12.39c5.051-7.066 24.405-23.485 94.89-23.485h617.95c70.485 0 89.839 16.384 94.857 23.484a17.203 17.203 0 0 1 2.9 12.459l-115.13 150.528V429.568c0 234.803-211.354 285.491-236.818 290.714H457.216c-25.19-5.291-236.885-56.798-236.885-290.714v-195.38L105.199 83.594zM603.17 739.26h-52.053V804.864a39.117 39.117 0 0 1-78.166 0v-65.604h-52.053V804.864A91.238 91.238 0 0 0 512.034 896a91.238 91.238 0 0 0 91.136-91.136v-65.604zM512.034-128c-102.468 0-176.81 68.13-176.81 162.065h52.087c0-64.785 51.268-110.012 124.723-110.012 73.42 0 124.723 45.193 124.723 110.012h52.054C688.845-59.802 614.468-128 512.034-128z"  horiz-adv-x="1024" />

    
    <glyph glyph-name="xuanze" unicode="&#58890;" d="M512-5.402c-214.717 0-389.402 174.685-389.402 389.402S297.283 773.402 512 773.402 901.402 598.717 901.402 384 726.717-5.402 512-5.402z m0 727.604c-186.486 0-338.202-151.716-338.202-338.202S325.514 45.798 512 45.798 850.202 197.514 850.202 384 698.486 722.202 512 722.202z"  horiz-adv-x="1024" />

    
    <glyph glyph-name="xuanze1" unicode="&#58891;" d="M513 831.844c-247.424 0-448-200.576-448-448s200.576-448 448-448c247.423 0 447.999 200.576 447.999 448s-200.576 448-447.999 448z m278.049-297.669L497.674 194.308c-5.933-6.873-14.305-10.398-22.724-10.398a29.879 29.879 0 0 0-19.589 7.291L238.058 378.776c-12.543 10.827-13.934 29.771-3.107 42.313 10.826 12.543 29.771 13.934 42.313 3.107l194.595-167.974 273.77 317.158c10.826 12.543 29.771 13.934 42.313 3.107 12.542-10.827 13.933-29.77 3.107-42.312z"  horiz-adv-x="1024" />

    
    <glyph glyph-name="tongzhi" unicode="&#58892;" d="M622.592 814.08c-13.312 0-25.6-4.096-36.864-11.264l-348.16-230.4c-14.336-9.216-31.744-15.36-49.152-15.36h-69.632C80.896 558.08 51.2 528.384 51.2 491.52v-202.752c0-36.864 29.696-66.56 66.56-66.56h69.632c17.408 0 34.816-5.12 49.152-15.36l349.184-230.4c11.264-7.168 23.552-11.264 36.864-11.264 36.864 0 66.56 29.696 66.56 66.56V747.52c1.024 36.864-29.696 66.56-66.56 66.56zM102.4 288.768V491.52c0 8.192 7.168 15.36 15.36 15.36h66.56v-233.472h-66.56c-8.192 0-15.36 7.168-15.36 15.36z m535.552-256c0-9.216-8.192-15.36-15.36-15.36-3.072 0-6.144 1.024-8.192 3.072L265.216 249.856c-8.192 5.12-16.384 10.24-25.6 13.312V517.12c9.216 3.072 17.408 8.192 25.6 13.312l349.184 230.4c3.072 2.048 5.12 3.072 8.192 3.072 7.168 0 15.36-6.144 15.36-15.36v-715.776z m159.744 477.184c-11.264 9.216-27.648 7.168-35.84-4.096-9.216-11.264-7.168-27.648 4.096-35.84 27.648-22.528 44.032-56.32 44.032-92.16 0-34.816-15.36-67.584-41.984-90.112-11.264-9.216-12.288-25.6-3.072-35.84 5.12-6.144 12.288-9.216 19.456-9.216 6.144 0 11.264 2.048 16.384 6.144 38.912 31.744 60.416 79.872 60.416 130.048s-22.528 98.304-63.488 131.072zM867.328 624.64c-11.264 8.192-27.648 5.12-35.84-7.168-8.192-11.264-5.12-27.648 7.168-35.84 66.56-45.056 106.496-119.808 106.496-199.68 0-84.992-43.008-161.792-115.712-205.824-12.288-7.168-16.384-23.552-8.192-34.816 5.12-8.192 13.312-12.288 21.504-12.288 4.096 0 9.216 1.024 13.312 4.096 88.064 53.248 140.288 146.432 140.288 249.856-1.024 96.256-49.152 186.368-129.024 241.664z"  horiz-adv-x="1024" />

    
    <glyph glyph-name="zhangdan1" unicode="&#58896;" d="M215.9 748.4c-13.5 0-24.4-10.9-24.4-24.4v-682.7c0-13.5 10.9-24.4 24.4-24.4H801c13.5 0 24.4 10.9 24.4 24.4V724c0 13.5-10.9 24.4-24.4 24.4H215.9z m0 48.8H801c40.4 0 73.1-32.7 73.1-73.1v-682.7c0-40.4-32.7-73.1-73.1-73.1H215.9c-40.4 0-73.1 32.7-73.1 73.1V724c0 40.4 32.7 73.2 73.1 73.2zM337.8 553.4h341.3c13.5 0 24.4-10.9 24.4-24.4 0-13.5-10.9-24.4-24.4-24.4H337.8c-13.5 0-24.4 10.9-24.4 24.4 0 13.4 11 24.4 24.4 24.4z m0-146.3h341.3c13.5 0 24.4-10.9 24.4-24.4 0-13.5-10.9-24.4-24.4-24.4H337.8c-13.5 0-24.4 10.9-24.4 24.4 0 13.5 11 24.4 24.4 24.4z m0-146.3h195c13.5 0 24.4-10.9 24.4-24.4 0-13.5-10.9-24.4-24.4-24.4h-195c-13.5 0-24.4 10.9-24.4 24.4 0 13.5 11 24.4 24.4 24.4z"  horiz-adv-x="1024" />

    
    <glyph glyph-name="dizhi1" unicode="&#58897;" d="M518.656 4.288a2084.224 2084.224 0 0 1 135.04 157.696c31.04 40.32 58.432 79.488 81.216 116.8 45.504 74.88 70.912 139.648 70.912 193.536C805.824 653.184 661.376 800 482.88 800 304.448 800 160 653.184 160 472.32c0-53.888 25.408-118.656 70.912-193.536 22.784-37.312 50.112-76.48 81.216-116.8a2084.224 2084.224 0 0 1 147.968-171.136l22.784-23.232 22.848 23.232c2.432 2.432 6.784 7.04 12.928 13.44z m-12.928 31.424a2021.248 2021.248 0 0 0-142.912 165.376 1242.752 1242.752 0 0 0-77.184 110.976C245.632 377.728 224 433.024 224 472.32 224 618.048 340.032 736 482.88 736c142.912 0 258.944-117.952 258.944-263.68 0-39.36-21.632-94.592-61.632-160.256-21.376-35.2-47.488-72.448-77.184-110.976a2021.248 2021.248 0 0 0-142.912-165.376h45.632zM624 477.12a141.12 141.12 0 1 1-282.24 0 141.12 141.12 0 0 1 282.24 0z m-218.24 0a77.12 77.12 0 1 0 154.24 0 77.12 77.12 0 0 0-154.24 0z"  horiz-adv-x="1024" />

    
    <glyph glyph-name="jiantou" unicode="&#58898;" d="M631.323 402.473c10.986 10.986 28.789 10.986 39.773 0 10.986-10.986 10.986-28.789 0-39.773L392.675 84.279c-10.986-10.986-28.789-10.986-39.773 0-10.986 10.986-10.986 28.789 0 39.773l278.421 278.421zM352.903 643.948c-10.986 10.986-10.986 28.789 0 39.773 10.986 10.986 28.789 10.986 39.773 0L671.097 405.3c10.986-10.986 10.986-28.789 0-39.773-10.986-10.986-28.789-10.986-39.773 0L352.903 643.948z"  horiz-adv-x="1024" />

    
    <glyph glyph-name="geren" unicode="&#58899;" d="M596.4 357.5H430.5c-159.2 0-293.8-114.8-320.5-272.8-6.2-36.6 4.6-73.7 28-101.6 24.3-28 59.3-44.9 96.3-44.9H789c37.5 0 72.9 16.4 97.1 45.3 24.3 28.8 34.2 66.3 27.6 103.3v5c-28.1 153.3-161.9 265.7-317.3 265.7z m253-342.4c-13.2-17.3-35-27.2-59.3-27.2H236.7c-23.9 0-44 9.4-58.1 27.2-14.4 15.6-21 37.5-17.7 61.3 21 134.2 135 231.7 270.8 231.7h164.6c133.4 0 246.5-94.7 269.2-225.5l1.2-4.6c2.9-23.4-2.9-46-17.3-62.9zM512.8 829.8c-122.6 0-222.2-99.6-222.2-222.2s99.6-222.2 222.2-222.2S735 485 735 607.6 635.4 829.8 512.8 829.8z m0-395.4c-95.5 0-173.7 77.7-173.7 173.7s77.7 173.7 173.7 173.7S686.5 704 686.5 608c-0.8-95.9-78.3-173.6-173.7-173.6z"  horiz-adv-x="1024" />

    
    <glyph glyph-name="dizhi2" unicode="&#58900;" d="M518.656 4.288a2084.224 2084.224 0 0 1 135.04 157.696c31.04 40.32 58.432 79.488 81.216 116.8 45.504 74.88 70.912 139.648 70.912 193.536C805.824 653.184 661.376 800 482.88 800 304.448 800 160 653.184 160 472.32c0-53.888 25.408-118.656 70.912-193.536 22.784-37.312 50.112-76.48 81.216-116.8a2084.224 2084.224 0 0 1 147.968-171.136l22.784-23.232 22.848 23.232c2.432 2.432 6.784 7.04 12.928 13.44z m-12.928 31.424a2021.248 2021.248 0 0 0-142.912 165.376 1242.752 1242.752 0 0 0-77.184 110.976C245.632 377.728 224 433.024 224 472.32 224 618.048 340.032 736 482.88 736c142.912 0 258.944-117.952 258.944-263.68 0-39.36-21.632-94.592-61.632-160.256-21.376-35.2-47.488-72.448-77.184-110.976a2021.248 2021.248 0 0 0-142.912-165.376h45.632zM624 477.12a141.12 141.12 0 1 1-282.24 0 141.12 141.12 0 0 1 282.24 0z m-218.24 0a77.12 77.12 0 1 0 154.24 0 77.12 77.12 0 0 0-154.24 0z"  horiz-adv-x="1024" />

    
    <glyph glyph-name="yanzhengma" unicode="&#58901;" d="M890.82 551.883c0-53.549 0.05-107.099-0.026-160.647-0.027-19.389-2.719-38.495-5.907-57.61-4.746-28.451-13.149-55.795-24.05-82.342-12.161-29.618-28.223-57.127-46.848-83.221-16.756-23.476-35.538-45.17-56.8-64.499-16.254-14.776-33.433-28.645-51.042-41.79-33.026-24.65-70.481-41.618-107.202-59.785-13.5-6.68-27.008-13.345-40.606-19.822-12.21-5.816-24.375-11.797-36.901-16.86-7.003-2.83-14.619-1.9-21.536 1.454-17.624 8.547-35.142 17.31-52.751 25.889-23.314 11.359-46.901 22.182-69.954 34.045-25.731 13.242-50.3 28.528-72.87 46.724-12.842 10.353-25.214 21.31-37.5 32.325-22.796 20.432-41.928 44.061-59.561 68.992-14.737 20.835-26.92 43.141-37.541 66.236-12.778 27.784-22.059 56.868-27.77 86.907-3.702 19.461-6.504 39.123-6.409 59.081 0.057 12.04-0.893 24.084-0.902 36.125-0.08 98.571-0.105 197.142 0.016 295.713 0.018 15.272 6.756 24.596 20.882 29.043 26.505 8.344 53.083 16.661 80.053 23.269 24.92 6.105 50.34 10.26 75.643 14.694 16.803 2.944 33.76 5.081 50.697 7.179 13.67 1.693 27.397 3.017 41.132 4.09 16.322 1.276 32.672 2.234 49.024 3.085 11.006 0.573 22.033 0.764 33.053 1.057 14.258 0.38 28.518 0.948 42.777 0.957 13.235 0.01 26.477-0.465 39.705-0.994 11.984-0.48 23.976-1.05 35.922-2.069 16.908-1.443 33.793-3.21 50.66-5.068 17.336-1.909 34.737-3.506 51.935-6.307 21.062-3.429 42.047-7.51 62.878-12.15 22.095-4.923 44.054-10.52 65.909-16.427 12.683-3.428 25.048-8.03 37.55-12.129 11.276-3.697 18.453-14.061 18.42-25.29-0.17-56.618-0.08-113.237-0.08-169.855zM831.47 539.37v92.59c0 21.995-0.03 43.992 0.036 65.988 0.008 2.817-0.335 4.543-3.698 5.429-12.872 3.39-25.492 7.815-38.457 10.743-26.171 5.91-52.427 11.521-78.8 16.441-20.041 3.738-40.283 6.48-60.502 9.166-13.819 1.837-27.73 3.13-41.64 4.102-19.047 1.333-38.132 2.994-57.2 2.974-36.017-0.04-72.034-1.144-108.049-1.886-8.122-0.167-16.24-0.604-24.354-1.022-4.542-0.235-9.089-0.555-13.607-1.067-14.33-1.624-28.658-3.285-42.971-5.066-13.13-1.634-26.312-3.014-39.338-5.278-16.912-2.94-33.813-6.139-50.501-10.137-24.597-5.892-48.983-12.663-73.506-18.868-4.049-1.024-5.043-2.925-5.037-6.994 0.132-97.704-0.02-195.41 0.238-293.114 0.038-14.293 1.661-28.603 2.974-42.866 1.904-20.684 6.995-40.713 13.168-60.5 7.543-24.179 18.024-47.036 30.464-69.054 13.566-24.014 29.816-46.142 48.367-66.429 15.65-17.115 32.649-32.93 51.008-47.244a434.718 434.718 0 0 1 70.063-44.605c20.863-10.63 42.127-20.47 63.165-30.76 12.04-5.89 23.944-12.063 36.014-17.89 1.679-0.81 4.263-1.078 5.915-0.38 6.462 2.728 12.726 5.926 19.046 8.983 14.159 6.85 28.361 13.61 42.45 20.6 32.049 15.904 64.731 30.793 93.491 52.439 15.953 12.006 31.52 24.641 46.311 38.04 16.523 14.968 30.88 32.039 44.253 49.961 22.443 30.077 40.026 62.672 52.311 98.103 5.9 17.017 11.08 34.257 13.343 52.213 1.74 13.798 4.656 27.596 4.812 41.419 0.579 51.315 0.231 102.644 0.231 153.969zM474.241 338.507c9.98 11.568 19.787 22.84 29.485 34.204 9.167 10.742 18.174 21.62 27.342 32.36 6.891 8.076 13.976 15.985 20.88 24.048 9.41 10.983 18.696 22.07 28.098 33.059 6.9 8.065 13.95 16.005 20.85 24.072 9.51 11.119 18.903 22.339 28.42 33.453a1739.502 1739.502 0 0 0 20.92 24.012c4.433 4.988 8.568 10.43 13.736 14.535 8.233 6.536 17.918 7.261 27.363 2.809 8.428-3.974 13.677-10.613 15.44-20.295 2.078-11.423-3.317-19.478-10.115-27.368-11.972-13.893-23.793-27.917-35.757-41.817-9.232-10.729-18.659-21.291-27.864-32.043-11.153-13.028-22.132-26.206-33.249-39.265-6.66-7.825-13.475-15.517-20.157-23.323-9.735-11.374-19.383-22.823-29.127-34.19-6.798-7.93-13.743-15.736-20.536-23.671a4632.963 4632.963 0 0 1-28.402-33.469c-6.468-7.702-13.53-14.836-24.211-15.253-7.172-0.28-14.305 1.317-19.814 6.832-34.954 34.978-70.028 69.837-104.81 104.986-7.224 7.299-7.959 16.826-5.236 26.395 2.894 10.17 10.24 15.902 20.3 18.049 10.477 2.236 19.33-1.231 26.786-8.69a263301.58 263301.58 0 0 1 75.6-75.6c1.292-1.29 2.658-2.511 4.058-3.83z"  horiz-adv-x="1024" />

    
    <glyph glyph-name="xiaofei" unicode="&#58902;" d="M837.216-115.018H186.88c-3.295 0-6.548 0.136-9.773 0.548-2.536 0.26-5.506 0.745-8.444 1.34-3.508 0.786-6.521 1.605-9.394 2.578-2.37 0.723-5.33 1.867-8.25 3.184a85.852 85.852 0 0 0-8.032 4.106c-2.294 1.297-4.88 2.945-7.362 4.715-2.321 1.602-4.734 3.544-7.007 5.55a89.067 89.067 0 0 0-6.219 5.928c-2.027 2.125-3.943 4.4-5.81 6.74-1.746 2.2-3.442 4.62-5.089 7.15-1.53 2.42-2.99 5.094-4.424 7.845-1.387 2.652-2.532 5.232-3.66 7.892-1.359 3.438-2.338 6.306-3.183 9.25a83.363 83.363 0 0 0-2.173 9.01 91.14 91.14 0 0 0-1.315 9.157 95.445 95.445 0 0 0-0.478 9.306V668.145c0 3.252 0.192 6.452 0.503 9.565 0.257 2.938 0.717 6.046 1.311 9.156 0.551 3.012 1.37 6.216 2.322 9.298 0.67 2.467 1.653 5.286 2.75 8.063 1.36 3.248 2.51 5.812 3.751 8.267 1.605 3.039 3.06 5.666 4.756 8.229a94.927 94.927 0 0 0 5.071 7.121c1.793 2.252 3.634 4.425 5.576 6.48 2.364 2.412 4.467 4.472 6.716 6.408 1.883 1.676 4.328 3.591 6.858 5.383a94.73 94.73 0 0 0 7.175 4.586 83.083 83.083 0 0 0 8.105 4.137 90.146 90.146 0 0 0 8.368 3.225c3.013 0.985 5.955 1.8 8.918 2.425a89.968 89.968 0 0 0 9.155 1.481 93.617 93.617 0 0 0 9.298 0.477h60.829c13.22 0 23.91-10.712 23.91-23.91 0-13.194-10.69-23.911-23.91-23.911H186.9c-1.455 0-2.91-0.07-4.349-0.215-1.382-0.144-2.725-0.385-4.062-0.668-1.385-0.311-2.776-0.69-4.066-1.124a50.584 50.584 0 0 1-3.824-1.481 37.186 37.186 0 0 1-3.541-1.793c-1.078-0.642-2.318-1.411-3.464-2.226-1.294-0.91-2.321-1.695-3.273-2.531-1.486-1.246-2.467-2.272-3.446-3.3a55.797 55.797 0 0 1-2.75-3.254c-0.882-1.075-1.626-2.221-2.413-3.418-0.982-1.483-1.604-2.724-2.301-3.992a82.357 82.357 0 0 1-1.98-4.371 83.272 83.272 0 0 1-1.246-3.73c-0.524-1.775-0.86-3.156-1.122-4.526a43.989 43.989 0 0 1-0.69-4.756 47.003 47.003 0 0 1-0.284-5.088v-688.87c0-1.634 0.09-3.252 0.262-4.829 0.167-1.799 0.407-3.303 0.67-4.779 0.33-1.654 0.64-2.97 1.047-4.28 0.573-2.01 1.104-3.474 1.629-4.881 0.407-0.907 1.097-2.444 1.84-3.898 0.545-1.077 1.194-2.346 1.984-3.511 0.883-1.39 1.675-2.563 2.586-3.683a48.38 48.38 0 0 1 2.859-3.398c1.014-1.03 1.992-2.01 3.094-2.97a38.448 38.448 0 0 1 3.274-2.603c1.269-0.902 2.365-1.606 3.489-2.225a38.42 38.42 0 0 1 3.852-1.986c1.22-0.545 2.365-1 3.489-1.357a39.78 39.78 0 0 1 4.542-1.268 38.97 38.97 0 0 1 3.804-0.6c1.743-0.21 3.054-0.238 4.351-0.238h650.325c1.338 0 2.578 0.029 3.92 0.189 1.837 0.192 3.248 0.46 4.592 0.72 1.029 0.244 2.387 0.549 3.654 1.004 1.578 0.508 2.703 0.936 3.776 1.439a40.403 40.403 0 0 1 3.805 1.91 44.87 44.87 0 0 1 3.654 2.32c1.18 0.835 2.321 1.769 3.426 2.695 0.76 0.698 1.785 1.655 2.75 2.679 1.384 1.416 2.267 2.513 3.17 3.659 0.65 0.838 1.414 1.865 2.084 2.968 1.198 1.841 1.866 3.015 2.491 4.234 0.643 1.241 1.27 2.551 1.794 3.894 0.711 1.77 1.191 3.158 1.594 4.59a42.43 42.43 0 0 1 1.055 4.261c0.363 1.834 0.577 3.417 0.744 5.04 0.164 1.6 0.22 3.225 0.22 4.856V668.145c0 1.646-0.049 3.273-0.22 4.853a54.937 54.937 0 0 1-0.718 4.858 50.563 50.563 0 0 1-1.123 4.66c-0.382 1.192-0.84 2.578-1.407 3.943-0.697 1.819-1.365 3.135-2.007 4.445a34.38 34.38 0 0 1-1.99 3.398c-1.173 1.883-1.888 2.889-2.652 3.868-0.739 0.915-1.698 2.108-2.77 3.226-1.106 1.156-2.104 2.129-3.159 3.045a42.709 42.709 0 0 1-3.275 2.574c-1.24 0.893-2.509 1.68-3.851 2.466a43.33 43.33 0 0 1-7.41 3.23 45.714 45.714 0 0 1-3.751 1.002 38.038 38.038 0 0 1-4.09 0.669 43.023 43.023 0 0 1-4.353 0.214h-60.822c-13.222 0-23.912 10.711-23.912 23.91s10.69 23.91 23.912 23.91h60.822a86.246 86.246 0 0 0 18.555-1.984c2.777-0.6 5.666-1.392 8.464-2.273 3.275-1.103 6.023-2.178 8.705-3.37a88.685 88.685 0 0 0 7.886-3.992c2.821-1.67 5.237-3.199 7.532-4.853 2.395-1.676 4.635-3.488 6.861-5.404 2.37-2.033 4.52-4.142 6.553-6.287 1.82-1.937 3.655-4.087 5.476-6.34 2.199-2.798 4.039-5.377 5.665-8.1 1.216-1.798 2.777-4.495 4.237-7.294a95.812 95.812 0 0 0 3.75-8.367c1.006-2.418 2.029-5.313 2.89-8.271 0.916-3.157 1.676-6.195 2.25-9.208 0.526-2.895 1.007-5.936 1.313-9.017 0.316-3.135 0.455-6.308 0.455-9.565v-688.863c0-3.23-0.14-6.428-0.455-9.54a96.64 96.64 0 0 0-1.358-9.178c-0.508-2.828-1.288-5.861-2.127-8.8a90.453 90.453 0 0 0-3.137-8.993c-0.934-2.434-2.241-5.234-3.58-7.916-1.46-2.797-3.018-5.54-4.735-8.146-1.176-1.938-2.99-4.495-4.906-6.94-2.028-2.534-3.94-4.805-5.977-6.907-1.648-1.79-3.797-3.852-6.024-5.812-2.482-2.128-4.755-3.969-7.149-5.644a83.871 83.871 0 0 0-7.532-4.804c-2.482-1.436-5.189-2.793-7.978-4.04a73.499 73.499 0 0 0-8.607-3.294c-2.418-0.82-5.355-1.603-8.396-2.277-3.228-0.666-6.265-1.17-9.324-1.479-2.76-0.34-5.937-0.476-9.231-0.476z m0 0M359.828 634.935c-15.847 0-31.92 7.961-41.936 20.823-9.851 12.627-13.124 28.283-9.16 44.039l2.2 8.872c4.229 16.879 7.89 31.561 10.02 40.362 5.046 20.99 31.921 45.419 58.955 45.419l27.26 0.054 11.617-0.054 0.053 0.192c2.842 11.6 8.313 33.72 10.852 42.873 5.858 20.92 31.18 43.467 61.903 43.467l25.271 0.048 15.107-0.048c31.418-0.075 56.882-22.787 62.386-43.8 2.558-9.545 8.313-31.06 11.354-42.754l11.165-0.021 20.54 0.042c40.379 0 61.466-27.159 65.89-45.398l12.006-49.42c3.895-16.067 0.617-31.803-9.207-44.28-9.897-12.553-25.558-20.37-40.91-20.37l-24.964 0.022c-70.714 0.103-265.962 0.337-279.085 0l-1.317-0.068z m47.334 111.705l-27.185-0.053c-3.317-0.118-11.112-6.163-12.91-9.969-1.767-7.722-5.474-22.547-9.706-39.544l-2.22-8.897c-0.408-1.553-0.166-2.221 0.48-3.007 1.237-1.605 3.394-2.42 4.23-2.42v-23.904l0.046 23.905c13.173 0.359 209.254 0.117 280.4 0.028l24.917-0.028c0.58 0.076 2.484 0.957 3.47 2.296 0.26 0.358 0.715 1.027 0.19 3.295l-12.048 49.373c-0.048 0-3.73 8.872-18.99 8.872l-20.993-0.05-16.73 0.05c-18.46 0-34.672 12.748-39.453 30.989-2.366 9.229-9.535 36.222-12.505 47.312-0.932 1.868-7.747 8.23-16.35 8.251l-14.943 0.026-25.271-0.048c-8.224 0-14.873-6.555-16.024-9.064-2.267-8.27-7.528-29.693-10.327-40.907l-1.316-5.286c-4.659-18.962-20.802-31.272-41.073-31.272l-15.69 0.052z m266.502-546.304H535.65v74.533h138.013c6.703 0 12.946 2.55 17.588 7.193 4.411 4.447 6.815 10.296 6.798 16.441 0.018 6.147-2.387 11.996-6.814 16.41-4.625 4.674-10.868 7.227-17.571 7.227H535.308l-0.642 6.208 156.065 156.065c9.528 9.48 9.791 24.745 0.59 33.964-4.318 4.378-10.15 6.764-16.45 6.764-6.585 0-12.828-2.58-17.584-7.318L511.998 372.58 366.692 517.823c-4.708 4.739-10.936 7.324-17.52 7.324-6.277 0-12.109-2.388-16.428-6.736-4.382-4.345-6.784-10.2-6.8-16.507 0-6.577 2.617-12.782 7.357-17.49l155.048-153.706v-8.566H350.316c-6.684 0-12.912-2.553-17.557-7.22-4.413-4.446-6.831-10.27-6.814-16.417 0-13.043 10.952-23.635 24.42-23.635h137.984v-74.527H350.316c-6.67 0-12.896-2.553-17.557-7.231-4.413-4.442-6.831-10.26-6.814-16.405 0-13.046 10.952-23.636 24.42-23.636h137.984v-97.445c0-13.439 10.604-24.355 23.648-24.355 13.043 0 23.653 10.916 23.653 24.355v97.445h138.013c6.703 0 12.946 2.548 17.588 7.226 4.411 4.413 6.815 10.266 6.798 16.41 0.018 6.146-2.4 11.963-6.814 16.405-4.639 4.677-10.882 7.224-17.571 7.224z m0 0M837.216-120.018H186.88c-3.932 0-7.22 0.185-10.342 0.58-2.55 0.263-5.614 0.75-8.866 1.405l-0.104 0.022c-3.735 0.838-6.861 1.696-9.83 2.697-2.553 0.783-5.665 1.984-8.773 3.387a90.418 90.418 0 0 0-8.49 4.341c-2.457 1.39-5.155 3.117-7.751 4.966-2.286 1.577-4.803 3.567-7.416 5.874a93.461 93.461 0 0 0-6.52 6.22c-1.914 2.004-3.853 4.252-6.107 7.079-1.745 2.2-3.498 4.664-5.37 7.543-1.816 2.868-3.446 5.917-4.666 8.258-1.532 2.93-2.746 5.697-3.83 8.25l-0.047 0.115c-1.396 3.53-2.425 6.525-3.339 9.71a87.208 87.208 0 0 0-2.285 9.489 95.61 95.61 0 0 0-1.376 9.611 99.198 99.198 0 0 0-0.498 9.75V668.145c0 3.205 0.172 6.496 0.527 10.061 0.255 2.913 0.72 6.162 1.374 9.598 0.55 2.996 1.392 6.38 2.433 9.757 0.67 2.45 1.671 5.389 2.9 8.503l0.04 0.097c1.5 3.585 2.667 6.154 3.9 8.592 1.75 3.312 3.254 6.02 5.048 8.731a99.321 99.321 0 0 0 5.315 7.458c2.073 2.604 3.988 4.828 5.87 6.817 2.177 2.224 4.491 4.53 7.083 6.762 1.936 1.724 4.526 3.758 7.233 5.675a98.948 98.948 0 0 0 7.564 4.836c2.665 1.558 5.475 2.991 8.567 4.372 3.098 1.363 5.986 2.476 8.854 3.412 3.314 1.084 6.402 1.923 9.438 2.563a94.368 94.368 0 0 0 9.65 1.561 99.166 99.166 0 0 0 9.836 0.506h60.829c15.941 0 28.91-12.97 28.91-28.91 0-15.941-12.969-28.911-28.91-28.911h-60.829a38.01 38.01 0 0 1-3.846-0.19c-1.025-0.105-2.149-0.292-3.526-0.584-1.2-0.27-2.435-0.61-3.512-0.972a46.497 46.497 0 0 1-3.434-1.331 32.95 32.95 0 0 1-3.051-1.55 45.937 45.937 0 0 1-3.039-1.954c-1.225-0.861-2.104-1.54-2.874-2.215l-0.086-0.074c-1.277-1.07-2.133-1.968-3.04-2.918a51.472 51.472 0 0 1-2.427-2.881l-0.075-0.094c-0.672-0.82-1.281-1.746-1.986-2.82l-0.116-0.175c-0.663-1.002-1.143-1.891-1.651-2.833l-0.382-0.704a78.585 78.585 0 0 1-1.766-3.9 79.973 79.973 0 0 1-1.125-3.375 40.981 40.981 0 0 1-0.991-3.999 39.525 39.525 0 0 1-0.623-4.278 42.236 42.236 0 0 1-0.263-4.626v-688.87c0-1.43 0.078-2.873 0.232-4.287 0.162-1.742 0.39-3.135 0.612-4.39 0.323-1.608 0.587-2.69 0.909-3.729l0.033-0.112a54.53 54.53 0 0 1 1.448-4.352c0.4-0.893 1.019-2.261 1.664-3.522 0.44-0.871 1.03-2.037 1.67-2.98l0.084-0.126c0.927-1.46 1.576-2.389 2.24-3.206l0.08-0.101a43.573 43.573 0 0 1 2.52-3.002c0.903-0.917 1.795-1.811 2.76-2.65a33.538 33.538 0 0 1 2.875-2.291c1.164-0.828 2.09-1.42 3.016-1.93l0.123-0.068a33.911 33.911 0 0 1 3.381-1.743c1.103-0.492 2.072-0.87 2.942-1.147 1.762-0.596 2.9-0.887 4.096-1.147 0.772-0.158 2.022-0.39 3.231-0.51 1.508-0.18 2.58-0.213 3.854-0.213h650.325c1.222 0 2.255 0.026 3.329 0.154 1.598 0.168 2.775 0.383 4.134 0.646l0.169 0.04c0.914 0.215 1.95 0.458 2.845 0.779l0.158 0.054c1.369 0.44 2.321 0.8 3.183 1.206l0.096 0.043a35.305 35.305 0 0 1 3.347 1.679 40.168 40.168 0 0 1 3.254 2.065c1.024 0.725 2.052 1.564 3.013 2.369a49.018 49.018 0 0 1 2.41 2.35c1.264 1.294 2.02 2.229 2.883 3.326 0.5 0.645 1.174 1.54 1.738 2.47l0.083 0.131c1.137 1.747 1.714 2.777 2.231 3.787 0.677 1.308 1.193 2.424 1.587 3.432 0.655 1.633 1.08 2.853 1.438 4.124 0.433 1.451 0.737 2.68 0.954 3.832 0.303 1.53 0.511 2.941 0.685 4.628 0.13 1.27 0.193 2.69 0.193 4.345v688.91c0 1.741-0.06 3.112-0.19 4.312a50.517 50.517 0 0 1-0.656 4.448 44.913 44.913 0 0 1-0.998 4.154c-0.363 1.132-0.765 2.335-1.24 3.48l-0.052 0.129c-0.546 1.425-1.073 2.498-1.632 3.635l-0.197 0.402a29.763 29.763 0 0 1-1.673 2.842l-0.072 0.112c-1.087 1.747-1.705 2.609-2.349 3.435l-0.015 0.017c-0.68 0.843-1.528 1.892-2.42 2.82-1.082 1.13-1.95 1.97-2.828 2.73a37.67 37.67 0 0 1-2.888 2.27c-0.987 0.71-2.055 1.393-3.492 2.234a38.412 38.412 0 0 1-6.46 2.799 41.262 41.262 0 0 1-3.231 0.86 33.046 33.046 0 0 1-3.552 0.582 38.118 38.118 0 0 1-3.831 0.187h-60.822c-15.942 0-28.912 12.969-28.912 28.91s12.97 28.91 28.912 28.91h60.822c3.366 0 6.567-0.167 9.786-0.51a92.261 92.261 0 0 0 9.826-1.588c2.783-0.6 5.781-1.405 8.91-2.392 3.41-1.146 6.314-2.272 9.234-3.572a93.035 93.035 0 0 0 8.34-4.22c3.276-1.94 5.716-3.513 7.968-5.135 2.204-1.54 4.51-3.356 7.2-5.67 2.27-1.949 4.536-4.122 6.92-6.64 1.782-1.894 3.654-4.06 5.735-6.636 2.493-3.171 4.39-5.879 5.998-8.561 1.29-1.924 2.906-4.706 4.448-7.663a99.96 99.96 0 0 0 3.956-8.812 85.915 85.915 0 0 0 3.053-8.742c1.016-3.504 1.787-6.664 2.36-9.668 0.66-3.64 1.096-6.632 1.376-9.46 0.322-3.195 0.479-6.488 0.479-10.06v-688.863c0-3.528-0.162-6.908-0.48-10.046a101.271 101.271 0 0 0-1.428-9.639c-0.46-2.568-1.172-5.52-2.225-9.205a95.298 95.298 0 0 0-3.296-9.464c-0.876-2.275-2.14-5.07-3.755-8.307-1.727-3.31-3.344-6.093-4.984-8.588-1.262-2.07-3.151-4.742-5.196-7.351-2.46-3.075-4.39-5.304-6.276-7.256-1.706-1.849-3.96-4.023-6.354-6.13-2.999-2.57-5.324-4.405-7.589-5.989a88.825 88.825 0 0 0-7.938-5.059c-2.496-1.444-5.335-2.883-8.396-4.252-2.774-1.278-5.937-2.49-9.099-3.483-2.459-0.832-5.522-1.663-8.863-2.404-3.702-0.765-6.812-1.258-9.852-1.567-2.746-0.329-6.038-0.5-9.781-0.5z m-667.514 11.778c2.946-0.595 5.682-1.028 7.913-1.256l0.127-0.015c2.71-0.347 5.614-0.508 9.14-0.508h650.334c3.36 0 6.26 0.147 8.615 0.438l0.11 0.013c2.708 0.273 5.51 0.718 8.816 1.4 2.945 0.654 5.667 1.392 7.798 2.115l0.114 0.037a68.42 68.42 0 0 1 8.01 3.063c2.797 1.252 5.325 2.531 7.566 3.827a79.38 79.38 0 0 1 7.126 4.542c2.056 1.438 4.078 3.036 6.805 5.373 2.11 1.86 4.118 3.793 5.6 5.403l0.088 0.093c1.696 1.75 3.39 3.71 5.663 6.552 1.78 2.27 3.487 4.68 4.535 6.408l0.1 0.159c1.47 2.229 2.935 4.75 4.479 7.708 1.444 2.894 2.583 5.408 3.345 7.394l0.042 0.106a85.476 85.476 0 0 1 2.964 8.502c0.937 3.277 1.595 5.995 2.005 8.277a92.501 92.501 0 0 1 1.304 8.784c0.286 2.818 0.43 5.858 0.43 9.05V668.091c0 3.233-0.14 6.197-0.43 9.063-0.253 2.563-0.652 5.301-1.256 8.625-0.506 2.65-1.206 5.514-2.133 8.709a76.803 76.803 0 0 1-2.704 7.746l-0.038 0.095a90.521 90.521 0 0 1-3.557 7.932c-1.358 2.604-2.834 5.147-3.918 6.752l-0.151 0.237c-1.42 2.377-3.055 4.713-5.304 7.574-1.88 2.325-3.59 4.306-5.186 6.003-2.135 2.252-4.155 4.192-6.167 5.918-2.437 2.097-4.49 3.717-6.472 5.103-2.056 1.48-4.263 2.9-7.212 4.646a82.904 82.904 0 0 1-7.378 3.73 91.868 91.868 0 0 1-8.262 3.197c-2.743 0.864-5.439 1.59-7.924 2.125a82.207 82.207 0 0 1-8.767 1.418 81.541 81.541 0 0 1-8.733 0.454h-60.822c-10.429 0-18.912-8.483-18.912-18.91s8.483-18.91 18.912-18.91h60.822a48.4 48.4 0 0 0 4.85-0.238c1.517-0.16 2.984-0.398 4.645-0.756 1.64-0.356 3.182-0.804 4.187-1.117a50.6 50.6 0 0 0 4.626-1.78 48.817 48.817 0 0 0 3.747-1.865c1.793-1.05 3.101-1.888 4.318-2.764a47.036 47.036 0 0 0 3.64-2.863c1.114-0.966 2.192-2.004 3.49-3.36 1.181-1.23 2.22-2.516 2.978-3.454l0.067-0.084c0.866-1.11 1.677-2.234 2.972-4.313a39.07 39.07 0 0 0 2.246-3.845l0.218-0.444c0.596-1.212 1.271-2.585 1.97-4.402 0.614-1.486 1.096-2.931 1.524-4.271l0.043-0.141c0.521-1.81 0.924-3.484 1.231-5.118 0.335-1.727 0.598-3.51 0.778-5.275 0.167-1.538 0.246-3.25 0.246-5.36v-688.914c0-1.998-0.08-3.754-0.246-5.366a57.574 57.574 0 0 0-0.813-5.502 46.539 46.539 0 0 0-1.168-4.72c-0.432-1.538-0.977-3.11-1.745-5.023-0.505-1.293-1.163-2.724-1.993-4.328-0.762-1.486-1.55-2.83-2.7-4.603-0.815-1.33-1.689-2.494-2.363-3.364-1.003-1.272-2.008-2.517-3.548-4.092-0.99-1.054-2.097-2.088-2.94-2.864l-0.17-0.148c-1.149-0.965-2.4-1.99-3.752-2.946a50.14 50.14 0 0 0-4.052-2.574 45.382 45.382 0 0 0-4.219-2.124c-1.234-0.576-2.511-1.065-4.244-1.625-1.403-0.498-2.818-0.83-3.855-1.074l-0.455-0.103c-1.586-0.308-3.058-0.58-5.021-0.785-1.585-0.19-3.077-0.217-4.442-0.217H186.862c-1.598 0-3.05 0.047-4.945 0.273-1.213 0.12-2.664 0.349-4.215 0.667a44.203 44.203 0 0 0-5.142 1.43c-1.14 0.36-2.452 0.87-3.923 1.527a44.018 44.018 0 0 0-4.284 2.205c-1.237 0.684-2.483 1.479-3.915 2.496a43.529 43.529 0 0 0-3.677 2.923c-1.235 1.076-2.338 2.182-3.358 3.22l-0.098 0.103a53.026 53.026 0 0 0-3.117 3.696c-1.113 1.375-2.027 2.756-2.85 4.048-0.977 1.452-1.748 2.979-2.262 3.994-0.788 1.539-1.505 3.138-1.934 4.093l-0.13 0.313c-0.537 1.439-1.114 3.027-1.736 5.202-0.421 1.364-0.77 2.782-1.157 4.727l-0.02 0.104a60.959 60.959 0 0 0-0.727 5.194 49.263 49.263 0 0 0-0.283 5.291V668.15c0 1.846 0.1 3.632 0.313 5.621 0.167 1.803 0.41 3.481 0.76 5.213 0.297 1.546 0.679 3.09 1.23 4.955a87.479 87.479 0 0 0 1.344 4.02l0.087 0.224a87.922 87.922 0 0 0 2.104 4.646l0.512 0.95c0.563 1.046 1.202 2.23 2.106 3.596l0.105 0.16c0.779 1.186 1.584 2.41 2.573 3.62a60.75 60.75 0 0 0 2.97 3.512c1.063 1.115 2.192 2.3 3.873 3.713 1.038 0.908 2.168 1.782 3.655 2.827 1.04 0.74 2.285 1.54 3.78 2.433 1.502 0.855 2.856 1.54 4.11 2.084a56.14 56.14 0 0 0 4.218 1.633 46.246 46.246 0 0 0 4.568 1.264c1.785 0.379 3.241 0.617 4.638 0.763a48.77 48.77 0 0 0 4.866 0.24h60.829c10.428 0 18.91 8.484 18.91 18.912 0 10.427-8.482 18.91-18.91 18.91H186.9c-2.839 0-5.8-0.152-8.8-0.452a84.534 84.534 0 0 1-8.608-1.396c-2.691-0.568-5.438-1.316-8.41-2.287a84.941 84.941 0 0 1-7.907-3.05 77.88 77.88 0 0 1-7.598-3.877 90.333 90.333 0 0 1-6.813-4.354c-2.408-1.705-4.69-3.494-6.418-5.032-1.928-1.662-3.784-3.435-6.468-6.174-1.623-1.717-3.356-3.731-5.237-6.094a89.416 89.416 0 0 1-4.786-6.725c-1.595-2.411-2.962-4.876-4.53-7.847-1.075-2.125-2.147-4.487-3.542-7.814-1.1-2.795-1.984-5.384-2.555-7.488l-0.049-0.17c-0.938-3.03-1.692-6.046-2.182-8.72-0.6-3.143-1.017-6.056-1.248-8.692-0.327-3.29-0.483-6.258-0.483-9.129V-20.72c0-2.778 0.156-5.825 0.453-8.812a86.419 86.419 0 0 1 1.25-8.7 78.974 78.974 0 0 1 2.047-8.507c0.838-2.92 1.765-5.615 3.025-8.808 0.995-2.345 2.104-4.87 3.464-7.472 1.133-2.173 2.633-4.982 4.218-7.485 1.667-2.563 3.241-4.777 4.781-6.72 2.057-2.577 3.81-4.612 5.51-6.394a83.961 83.961 0 0 1 5.86-5.59c2.332-2.058 4.593-3.85 6.588-5.225 2.345-1.67 4.804-3.246 6.983-4.479a81.05 81.05 0 0 1 7.613-3.895c2.736-1.234 5.525-2.313 7.666-2.966l0.145-0.046c2.635-0.889 5.442-1.659 8.832-2.42zM359.96 629.935h-0.132c-17.373 0-34.953 8.718-45.88 22.751-10.835 13.89-14.411 31.055-10.065 48.33l2.196 8.856c3.43 13.69 7.667 30.635 10.014 40.335 5.587 23.242 34.065 49.243 63.814 49.243l27.25 0.054 7.716-0.035c2.472 10.051 7.543 30.528 9.997 39.382 6.35 22.674 33.661 47.132 66.722 47.132l25.261 0.048 15.133-0.048c33.842-0.081 61.235-24.735 67.207-47.532 2.682-10.008 7.351-27.474 10.381-39.028l7.311-0.014 20.521 0.042c43.16 0 65.96-29.435 70.758-49.22l12.006-49.418c4.265-17.593 0.664-34.836-10.137-48.555-10.836-13.741-28.016-22.275-44.838-22.275l-24.97 0.02c-28.46 0.042-126.977 0.177-199.849 0.177-47.777 0-74.366-0.06-79.037-0.172l-1.379-0.073z m47.184 159.569l-27.228-0.054c-24.437 0-49.574-22.75-54.103-41.587-2.357-9.744-6.6-26.714-10.032-40.41l-2.197-8.86c-3.581-14.236-0.65-28.352 8.25-39.76 9.05-11.623 23.55-18.854 37.866-18.898l1.314 0.068c4.568 0.117 31.27 0.177 79.36 0.177 72.879 0 171.4-0.135 199.86-0.176l24.962-0.021c13.827 0 27.998 7.075 36.98 18.464 8.858 11.254 11.798 25.464 8.272 40.008l-12.006 49.417c-4.054 16.715-23.65 41.579-61.03 41.579l-20.53-0.042-15.043 0.027-0.971 3.734c-2.896 11.14-8.352 31.546-11.346 42.72-5.04 19.24-28.478 40.022-57.567 40.093l-15.11 0.048-25.247-0.048c-28.385 0-51.735-20.667-57.098-39.815-2.768-9.985-8.974-35.218-10.81-42.714l-0.091-0.336-1.019-3.685-15.436 0.07zM364.85 658.836l-10 0.02v20.478c-1.16 0.692-2.265 1.604-3.14 2.723-1.723 2.128-2.17 4.479-1.407 7.389l3.26 13.066c3.768 15.129 7.022 28.195 8.63 35.222l0.12 0.53 0.232 0.491c2.425 5.133 11.758 12.635 17.254 12.83l0.168 0.003 27.212 0.053 15.688-0.053c17.885 0 32.101 10.78 36.2 27.465l1.32 5.302c0.59 2.364 1.288 5.179 2.045 8.227 2.898 11.677 6.506 26.208 8.312 32.795l0.108 0.393 0.169 0.37c1.856 4.046 10.046 11.98 20.569 11.98l25.261 0.047 14.961-0.026c10.928-0.027 19.205-7.788 20.816-11.02l0.225-0.45 0.131-0.487c3.096-11.559 10.199-38.32 12.519-47.363 4.199-16.023 18.435-27.23 34.609-27.23l16.745-0.05 20.967 0.05c12.523 0 18.825-5.233 21.692-8.873h1.236l12.979-53.188c0.729-3.147 0.404-5.488-1.007-7.426-1.744-2.37-4.855-4.047-6.864-4.31l-0.324-0.042-25.244 0.028c-38.924 0.05-130.072 0.163-197.1 0.163-41.344 0-67.588-0.043-78.306-0.127l-0.036-18.98z m78.342 29.107c67.034 0 158.188-0.114 197.112-0.163l23.567-0.026-11.743 48.122c-0.937 1.518-4.422 5.712-14.292 5.712l-20.98-0.05-16.758 0.05c-20.704 0-38.917 14.277-44.275 34.722-2.264 8.825-9.079 34.508-12.275 46.453-1.332 1.522-6.119 5.363-11.756 5.377l-14.938 0.026-25.252-0.048c-5.427 0-10.224-4.267-11.37-5.964-1.821-6.723-5.29-20.693-8.092-31.982-0.758-3.053-1.457-5.871-2.048-8.236l-1.315-5.283c-5.233-21.296-23.26-35.064-45.926-35.064l-15.685 0.053-26.902-0.053c-1.935-0.497-7.047-4.438-8.473-6.735-1.674-7.251-4.856-20.03-8.524-34.758l-3.068-12.301c0.022-0.012 0.045-0.021 0.067-0.032 5.946 0.118 33.826 0.18 82.926 0.18z m68.806-661.674c-15.797 0-28.648 13.169-28.648 29.355V148.07H350.364c-16.222 0-29.42 12.846-29.42 28.636-0.02 7.46 2.917 14.542 8.269 19.929 5.595 5.617 13.088 8.708 21.104 8.708H483.35V269.87H350.364c-16.222 0-29.42 12.846-29.42 28.635-0.02 7.464 2.917 14.55 8.268 19.938 5.582 5.61 13.076 8.698 21.104 8.698H483.35v1.482l-153.568 152.24c-5.7 5.66-8.837 13.132-8.837 21.041 0.019 7.662 2.958 14.78 8.278 20.057 5.232 5.27 12.326 8.187 19.947 8.187 7.95 0 15.432-3.126 21.07-8.801L511.996 379.65l141.755 141.71c5.686 5.665 13.185 8.782 21.12 8.782 7.654 0 14.76-2.931 20.01-8.253 5.274-5.284 8.185-12.405 8.172-20.025-0.014-7.908-3.138-15.364-8.796-20.994L540.53 327.141h133.134c8.065 0 15.568-3.094 21.126-8.71 5.34-5.322 8.281-12.413 8.26-19.941 0.021-7.47-2.908-14.563-8.248-19.948-5.596-5.597-13.098-8.672-21.138-8.672H540.65v-64.533h133.013c8.055 0 15.557-3.092 21.122-8.705 5.35-5.384 8.285-12.467 8.264-19.94 0.021-7.49-2.912-14.579-8.262-19.93-5.557-5.6-13.063-8.69-21.124-8.69H540.65v-92.446c0-16.188-12.853-29.357-28.653-29.357zM350.316 195.342c-5.337 0-10.314-2.046-14.014-5.76-3.466-3.49-5.37-8.06-5.357-12.864 0-10.289 8.711-18.648 19.42-18.648h142.984v-102.445c0-10.673 8.365-19.355 18.648-19.355 10.285 0 18.653 8.683 18.653 19.355V158.07h143.013c5.375 0 10.361 2.041 14.04 5.747 3.465 3.47 5.36 8.036 5.346 12.874 0.014 4.833-1.89 9.402-5.36 12.896-3.679 3.709-8.657 5.75-14.025 5.75H530.65V279.87h143.013c5.368 0 10.358 2.034 14.052 5.729 3.448 3.477 5.348 8.06 5.334 12.892 0.014 4.87-1.884 9.434-5.344 12.883-3.689 3.73-8.668 5.77-14.042 5.77H530.798l-1.35 13.06 157.747 157.747c3.771 3.753 5.85 8.697 5.857 13.931 0.008 4.947-1.864 9.551-5.27 12.966-3.377 3.423-7.954 5.296-12.911 5.296-5.271 0-10.263-2.081-14.056-5.86L511.998 365.51l-148.84 148.776c-3.759 3.783-8.722 5.86-13.987 5.86-4.937 0-9.511-1.868-12.88-5.26-3.445-3.418-5.334-8.023-5.346-12.996 0-5.212 2.088-10.164 5.88-13.93l156.524-155.17v-15.65H350.316c-5.348 0-10.324-2.04-14.012-5.747-3.468-3.493-5.372-8.067-5.36-12.877 0-10.288 8.712-18.647 19.42-18.647H493.35v-84.527H350.316z"  horiz-adv-x="1024" />

    
    <glyph glyph-name="tui" unicode="&#58893;" d="M691.278 487.178v28.58H488.615v-67.554h163.69c27.687-1.745 40.678 11.245 38.973 38.974z m0 137.706H488.615v-67.554h202.663v67.554zM512 831.905C264.629 831.905 64.095 631.371 64.095 384S264.629-63.905 512-63.905 959.905 136.629 959.905 384 759.371 831.905 512 831.905z m280.61-609.747v-41.572c-138.6 27.688-224.341 96.135-257.225 205.261h64.956c13.843-27.728 26.835-51.112 38.974-70.153 34.63 13.844 59.759 37.228 75.349 70.153h62.358c-22.532-46.768-58.054-80.545-106.528-101.33 24.235-22.533 64.954-43.32 122.116-62.359zM423.66 666.456h329.976V484.58c1.705-53.71-25.982-80.546-83.143-80.546H488.615v-145.502c19.04 5.197 46.769 14.696 83.144 28.581-3.491-1.745-0.893-0.893 7.795 2.599v-44.17c-45.064-25.983-97.028-48.514-155.895-67.555V666.456zM309.337 676.85c24.237-45.064 40.679-88.34 49.367-129.912h-64.957c-8.688 50.219-22.532 93.536-41.572 129.912h57.162z m501.46-569.015H434.053c-57.161 0-96.135 16.483-116.921 49.367-24.278-29.434-59.76-49.367-106.528-59.76v38.974c45.022 17.335 65.808 47.62 62.358 90.938V450.802h-62.358v44.17h129.911v-252.029c1.705-58.906 33.778-88.34 96.135-88.34h374.146v-46.768z"  horiz-adv-x="1024" />

    
    <glyph glyph-name="biangeng1" unicode="&#58894;" d="M510.67109375 828.33544922c-246.94628906 0-447.16640625-200.16474609-447.16640625-447.16728516C63.5046875 134.22363281000003 263.72480469-66 510.67109375-66s447.16904297 200.22363281 447.16904297 447.16816406c0 247.00078125-200.22363281 447.16728516-447.16992188 447.16728516z m116.32148437-681.28681641v67.415625H260.66796875c-20.19726563 0-36.51855469 31.3875-36.51855469 47.49169922 0 15.99169922 16.32128906 47.43193359 36.51855469 47.4319336h366.32460938v67.415625l170.2555664-114.84667969-170.2555664-114.90820313z m133.67988282 305.89892578H394.40234375v-67.41210937L224.14941406 500.4375 394.40234375 615.2859375v-67.35673828h366.26923828c20.19814453 0 36.57568359-31.44462891 36.57568359-47.49169922 0-16.04443359-16.37753906-47.48994141-36.57568359-47.48994141z"  horiz-adv-x="1024" />

    
    <glyph glyph-name="gerenyetianjiajiaguanzhu" unicode="&#58895;" d="M924.166 418.565h-380.53V799.093c0 18.275-14.815 33.09-33.09 33.09-18.275 0-33.09-14.815-33.09-33.09v-380.528H96.926c-18.275 0-33.09-14.815-33.09-33.09 0-18.276 14.815-33.09 33.09-33.09h380.53v-380.53c0-18.275 14.815-33.09 33.09-33.09 18.275 0 33.09 14.815 33.09 33.09v380.53h380.53c18.275 0 33.09 14.814 33.09 33.09 0 18.275-14.815 33.09-33.09 33.09z"  horiz-adv-x="1024" />

    
    <glyph glyph-name="bangding" unicode="&#58903;" d="M897.751 651.71L752.271 798.33c-33.341 33.603-87.593 33.813-121.2 0.462L484.449 653.317c-33.597-33.336-33.812-87.598-0.47-121.206l28.461-28.672 44.724 44.37-4.23 4.24c-22.21 22.405-22.082 58.583 0.323 80.803l97.746 96.989c22.4 22.226 58.573 22.082 80.804-0.313l96.983-97.746c22.23-22.4 22.082-58.583-0.323-80.809l-97.735-96.972c-22.4-22.226-58.584-22.093-80.8 0.307l-4.218 4.255-44.723-44.36 28.472-28.698c33.347-33.592 87.603-33.807 121.2-0.47l146.612 145.49c33.608 33.32 33.812 87.582 0.476 121.184zM540.032 296.764l-28.288 28.509-44.723-44.37 4.05-4.081c22.226-22.395 22.082-58.568-0.318-80.799l-97.75-96.983c-22.4-22.236-58.574-22.087-80.79 0.307l-96.998 97.757c-22.215 22.395-22.082 58.578 0.323 80.798l97.751 96.999c22.4 22.21 58.573 22.067 80.799-0.323l4.034-4.07 44.708 44.37-28.273 28.498c-33.341 33.597-87.598 33.812-121.21 0.476L126.735 298.358c-33.602-33.337-33.812-87.598-0.476-121.19L271.74 30.54c33.336-33.603 87.608-33.813 121.206-0.461L539.56 175.56c33.597 33.341 33.797 87.603 0.471 121.205z m0 0M422.083 281.221a31.54 31.54 0 0 0-44.621 0.164 31.565 31.565 0 0 0 0.174 44.636l224.19 222.454a31.565 31.565 0 0 0 44.63-0.174 31.55 31.55 0 0 0-0.174-44.631l-224.2-222.449z m0 0"  horiz-adv-x="1024" />

    
    <glyph glyph-name="anquan" unicode="&#58904;" d="M730.699 436.12H551.856V614.962c0 24.527-16.351 40.367-40.367 40.367s-40.367-16.351-40.367-40.367V436.12H292.279c-24.527 0-40.367-16.352-40.367-40.368s16.351-40.367 40.367-40.367h178.843v-178.842c0-24.527 16.351-40.367 40.367-40.367s40.367 16.35 40.367 40.367V355.385H730.7c24.527 0 40.367 16.352 40.367 40.367 0.51 24.016-15.84 40.368-40.367 40.368zM903.41 761.102L537.037 892.423C529.884 894.978 522.73 896 515.577 896h-7.665c-7.154 0-14.818-1.022-21.46-3.577L120.08 761.102c-25.038-9.198-42.411-33.214-42.411-59.785v-384.255c0.51-11.242 12.774-272.351 411.848-438.42 0 0 12.263-4.087 21.972-4.598h2.044c8.176 0 33.214 10.22 42.411 14.307C933.046 54.42 945.31 306.331 945.31 317.061V700.807c0.511 27.082-16.862 51.098-41.9 60.296z m-18.907-442.507c-0.511-9.709-16.862-234.028-373.014-382.723-188.04 78.69-279.505 178.843-322.938 248.847-44.966 73.07-49.565 129.788-49.565 133.876V701.317c0 1.022 0.511 2.044 1.533 2.555L506.89 835.194h9.709L882.97 703.872c1.022-0.51 1.533-1.022 1.533-2.555v-382.722z"  horiz-adv-x="1024" />

    
    <glyph glyph-name="mima1" unicode="&#58905;" d="M762.624 499.45h-27.852V607.364c0 129.735-92.452 231.332-223.8 231.332-131.877 0-221.746-103.762-221.746-231.332V499.45h-27.85c-61.422 0-111.381-50.71-111.381-113.081v-339.201c0-62.372 49.959-113.082 111.38-113.082h501.249c61.42 0 111.381 50.71 111.381 113.082V386.369c0 62.371-49.96 113.081-111.381 113.081zM344.906 607.364c0 96.34 64.889 174.79 166.065 174.79 100.118 0 168.1-76.771 168.1-174.79V499.45H344.906V607.364z m473.397-560.196c0-31.186-24.98-56.541-55.68-56.541H261.376c-30.7 0-55.701 25.355-55.701 56.54V386.37c0 31.186 25.001 56.54 55.701 56.54h501.249c30.699 0 55.679-25.355 55.679-56.54v-339.201zM511.987 329.87c-30.743 0-55.679-25.354-55.679-56.584 0-20.93 11.208-39.187 27.85-48.964v-92.389c0-15.593 12.457-28.226 27.83-28.226 15.394 0 27.85 12.633 27.85 28.226v92.393c16.647 9.777 27.853 28.034 27.853 48.96 0 31.23-24.937 56.584-55.704 56.584z"  horiz-adv-x="1024" />

    
    <glyph glyph-name="rili" unicode="&#58906;" d="M392.339 768.84H636.87v-47.996H392.339V768.84z m400.281 0h64.318c33.508 0 63.413-13.579 85.153-35.322 21.742-21.742 35.299-51.623 35.299-85.107v-622.232c0-33.508-13.557-63.413-35.299-85.13-21.764-21.764-51.645-35.322-85.153-35.322H166.805c-32.601 0-62.504 13.557-84.224 35.322-21.742 21.742-35.346 51.623-35.346 85.13V648.411c0 33.484 13.603 63.364 35.346 85.107s51.623 35.322 84.224 35.322h67.015v-47.996h-67.015c-19.021 0-37.135-8.138-50.715-20.811-12.674-13.579-20.835-31.692-20.835-51.623v-622.232c0-19.906 8.161-38.043 20.835-50.715 13.579-13.603 31.692-21.764 50.715-21.764h690.133c19.927 0 38.043 8.161 50.739 21.764 13.579 12.674 21.742 30.788 21.742 50.715V648.41c0 19.906-8.161 38.019-20.835 51.623h-0.907c-12.696 12.649-30.788 20.811-50.739 20.811H792.62V768.84zM713.861 855.807c27.161 0 49.809-22.649 49.809-50.715v-129.543c0-27.137-22.649-49.809-49.809-49.809-28.09 0-50.762 22.695-50.762 49.809V805.071c0 28.066 22.671 50.739 50.762 50.739z m-50.762-653.925h125.893V98.66H663.099V201.882zM234.727 502.568h124.987v-103.244H234.727V502.568z m227.349 0.907h125.893v-102.336H462.076V503.475z m201.023 0h125.893v-102.336H663.099V503.475z m0.908-150.332H789.9v-103.222H664.007V353.143z m-201.048 0h125.916v-103.222H462.959V353.143z m-227.324-1.813h125.893v-102.314H235.635V351.33z m-0.908-150.357h124.987v-103.222H234.727V200.973z m227.349 0.909h125.893V98.66H462.076V201.882zM310.813 855.807c28.066 0 50.715-22.649 50.715-50.715v-129.543c0-27.137-22.649-49.809-50.715-49.809-27.161 0-49.809 22.695-49.809 49.809V805.071c0 28.066 22.649 50.739 49.809 50.739z"  horiz-adv-x="1024" />

    
    <glyph glyph-name="duanxin" unicode="&#58907;" d="M845.28 755.708h-666.6c-41 0-74.3-33.2-74.3-74.3v-445.1c0-41 33.2-74.3 74.3-74.3h142.2c14.9 0 27.1 12.1 27.1 27.1 0 14.9-12.1 27.1-27.1 27.1h-142.2c-11.1 0-20.1 9-20.1 20.1v445.2c0 11.1 9 20.1 20.1 20.1h666.6c11.1 0 20.1-9 20.1-20.1v-445.1c0-11.1-9-20.1-20.1-20.1h-313.5c-9.5 0-18.6-3.7-25.4-10.3l-150.8-146.7c-10.8-10.3-11.2-27.5-0.9-38.3 10.3-10.8 27.5-11.2 38.3-0.9l135.1 131.6c6.8 6.6 16 10.4 25.5 10.4h291.7c41 0 74.3 33.2 74.3 74.3v445.1c0 41-33.3 74.2-74.3 74.2z m-546.3-295c0-23.1 18.7-41.8 41.8-41.8s41.8 18.7 41.8 41.8c0 23.1-18.7 41.8-41.8 41.8s-41.8-18.7-41.8-41.8z m170.9 0c0-23.1 18.7-41.8 41.8-41.8s41.8 18.7 41.8 41.8c0 23.1-18.7 41.8-41.8 41.8s-41.8-18.7-41.8-41.8z m168.3 0c0-23.1 18.7-41.8 41.8-41.8s41.8 18.7 41.8 41.8c0 23.1-18.7 41.8-41.8 41.8-23.1 0-41.8-18.7-41.8-41.8z"  horiz-adv-x="1024" />

    
    <glyph glyph-name="xianlu" unicode="&#58908;" d="M723.169 415.732c-0.224 0.009-0.443 0.034-0.669 0.034h-418c-79.53 0-144 64.47-144 144s64.47 144 144 144h464v-51.376c0-8.498 6.786-12.624 11.958-8.888 7.066 5.093 104.622 78.408 110.594 82.982 5.357 4.104 5.448 13.875 0 17.974-8.294 6.238-105.482 79.181-110.344 82.794-6.067 4.514-12.208-1.226-12.208-8.941v-50.546h-463c-0.068 0-0.133-0.009-0.2-0.01-0.267 0.001-0.532 0.01-0.8 0.01-114.875 0-208-93.125-208-208 0-107.466 81.501-195.889 186.064-206.85a15.935 15.935 0 0 1 5.936-1.15h432c79.53 0 144-64.47 144-144s-64.47-144-144-144h-464v50.546c0 7.715-6.141 13.454-12.208 8.941-4.862-3.613-102.05-76.555-110.344-82.794-5.448-4.099-5.357-13.87 0-17.974 5.971-4.574 103.528-77.89 110.594-82.982 5.173-3.736 11.958 0.39 11.958 8.888v51.376h464c114.875 0 208 93.125 208 208 0 113.983-91.688 206.535-205.331 207.966z"  horiz-adv-x="1024" />

    
    <glyph glyph-name="tongyongtubiao" unicode="&#58909;" d="M86.756 743.435v-195.492c0-36.781 29.144-65.81 65.809-65.81h195.492c36.781 0 65.81 29.145 65.81 65.81V743.435c0 36.78-29.145 65.81-65.81 65.81H152.565c-36.78 0-65.81-29.145-65.81-65.81z m-65.423 0c0 72.477 58 131.232 131.232 131.232h195.492c72.477 0 131.232-58 131.232-131.232v-195.492c0-72.477-58-131.232-131.232-131.232H152.565c-72.477 0-131.232 58-131.232 131.232V743.435zM610.133 743.435v-195.492c0-36.781 29.145-65.81 65.81-65.81h195.492c36.78 0 65.81 29.145 65.81 65.81V743.435c0 36.78-29.145 65.81-65.81 65.81H675.943c-36.781 0-65.81-29.145-65.81-65.81z m-65.422 0c0 72.477 58 131.232 131.232 131.232h195.492c72.477 0 131.232-58 131.232-131.232v-195.492c0-72.477-58-131.232-131.232-131.232H675.943c-72.477 0-131.232 58-131.232 131.232V743.435zM610.133 122.311c0-90.172 73.327-163.555 163.556-163.555 90.172 0 163.555 73.326 163.555 163.555 0 90.172-73.326 163.556-163.555 163.556-90.172 0-163.556-73.327-163.556-163.556z m-65.422 0c0 126.461 102.774 228.978 228.978 228.978 126.46 0 228.978-102.774 228.978-228.978 0-126.46-102.774-228.978-228.978-228.978-126.461 0-228.978 102.774-228.978 228.978zM86.756 220.057v-195.492c0-36.78 29.144-65.81 65.809-65.81h195.492c36.781 0 65.81 29.145 65.81 65.81V220.057c0 36.781-29.145 65.81-65.81 65.81H152.565c-36.78 0-65.81-29.145-65.81-65.81z m-65.423 0c0 72.477 58 131.232 131.232 131.232h195.492c72.477 0 131.232-58 131.232-131.232v-195.492c0-72.477-58-131.232-131.232-131.232H152.565c-72.477 0-131.232 58-131.232 131.232V220.057z"  horiz-adv-x="1024" />

    
    <glyph glyph-name="aixinshixin" unicode="&#58911;" d="M946.432 375.232L886.4 315.264h0.128L512.064-59.008H512l-0.064-0.128-374.4 374.272-59.968 60.096c-103.424 103.36-103.424 270.912 0 374.272 103.36 103.36 270.976 103.36 374.4 0L512 689.536l60.032 60.032c103.488 103.36 271.04 103.36 374.528 0 103.296-103.36 103.168-270.912-0.128-374.336"  horiz-adv-x="1024" />

    
    <glyph glyph-name="daoyourenyuan" unicode="&#58912;" d="M294.31 427.149c-76.031 0-137.667 61.636-137.667 137.667 0 76.032 61.636 137.667 137.667 137.667 76.032 0.001 137.667-61.635 137.667-137.667 0-76.031-61.637-137.667-137.667-137.667z m316.286-452.743c-14.109 0-25.652 11.544-25.652 25.652V769.623c0 14.109 11.544 25.652 25.652 25.652 14.109 0 25.652-11.544 25.652-25.652v-52.241l321.119-134.02 0.031 0.014L1024 555.58 636.248 393.751v-393.693c0-14.108-11.544-25.652-25.652-25.652z m280.17 581.161L636.248 661.789v-212.446l254.518 106.224zM55.62 1.075v0.223c0 163.666 107.513 296.334 240.492 296.334 60.322 0 116.28-27.31 158.305-72.422 15.489-16.629 43.293-5.829 43.293 16.896 0 11.027-4.288 21.674-12.12 29.435-51.43 50.965-117.213 81.649-189.418 81.649C132.505 353.19 0 195.651 0 1.298c0-0.069 0.058-0.995 0.058-1.064l0.008-0.387 0.001-0.081 0.003-0.093 0.001-0.03c0.443-14.941 12.692-26.919 27.743-26.919 15.005 0 27.226 11.907 27.738 26.788 0.045 0.513 0.068 1.032 0.068 1.563z m238.69 760.409c-108.616 0-196.666-88.051-196.666-196.668 0-108.615 88.05-196.665 196.666-196.665 108.617 0 196.667 88.05 196.667 196.665-0.001 108.617-88.051 196.667-196.667 196.668z"  horiz-adv-x="1024" />

    
    <glyph glyph-name="tubiao-feiji" unicode="&#58913;" d="M991 829q-5 2-11 2-17 0-28-11Q109 396 41 361q-28-15-26-41 2-21 23-28l290-91 5-2 17 50-254 80 780 406-436-494q-29-33-29-71v-209q1-10 8.5-17t18-7q10.5 0 18 7t8.5 17q1 191 0 205 0 20 11 33 113 129 466 528L813 90q-1-4-4-4h-2l-280 85-5 1-17-50 5-2 95-28q39-12 79-24l111-34q8-2 15-2 20 0 35.5 13t19.5 34l56 278q85 418 86 427l1 3q5 31-17 42z"  horiz-adv-x="1024" />

    
    <glyph glyph-name="xiaoxi" unicode="&#58914;" d="M512 876.8c134.4 0 262.4-57.6 352-147.2 89.6-89.6 140.8-211.2 140.8-345.6 0-51.2-6.4-102.4-25.6-153.6-12.8-44.8-38.4-89.6-64-128v-172.8c0-19.2-19.2-38.4-38.4-38.4H512c-134.4 0-262.4 57.6-352 147.2C70.4 121.6 19.2 249.6 19.2 384c0 134.4 57.6 262.4 147.2 352C249.6 825.6 377.6 876.8 512 876.8zM262.4 480h492.8c12.8 0 25.6 12.8 25.6 25.6s-12.8 25.6-25.6 25.6H262.4c-12.8 0-25.6-12.8-25.6-25.6 6.4-12.8 12.8-25.6 25.6-25.6z m0-121.6h492.8c12.8 0 25.6 12.8 25.6 19.2 0 12.8-12.8 25.6-25.6 25.6H262.4c-12.8 6.4-19.2-6.4-19.2-19.2 0-12.8 6.4-25.6 19.2-25.6z m0-121.6h492.8c12.8 0 25.6 12.8 25.6 25.6S768 288 755.2 288H262.4c-12.8 0-25.6-12.8-25.6-25.6 6.4-12.8 12.8-25.6 25.6-25.6z m544 441.6A410.88 410.88 0 0 1 512 800c-115.2 0-217.6-44.8-294.4-121.6A410.88 410.88 0 0 1 96 384c0-115.2 44.8-217.6 121.6-294.4C294.4 12.8 396.8-32 512-32h332.8V115.2c0 6.4 0 12.8 6.4 25.6 25.6 32 44.8 76.8 57.6 115.2 12.8 38.4 19.2 83.2 19.2 128 0 115.2-44.8 217.6-121.6 294.4z"  horiz-adv-x="1024" />

    


  </font>
</defs>
</svg>
